<mxfile modified="2023-04-13T18:30:06.287Z" host="app.diagrams.net" agent="Mozilla/5.0 (Macintosh; Intel Mac OS X 10_15_7) AppleWebKit/537.36 (KHTML, like Gecko) Chrome/111.0.0.0 Safari/537.36" etag="2MP1PdQl3-9-D2q9upGc" version="21.1.7" type="device">
  <diagram id="WI9T0HZ2pTsCkuznbFz-" name="Page-1">
    <mxGraphModel dx="4360" dy="1740" grid="1" gridSize="10" guides="1" tooltips="1" connect="1" arrows="1" fold="1" page="1" pageScale="1" pageWidth="1169" pageHeight="827" math="0" shadow="0">
      <root>
        <mxCell id="0" />
        <mxCell id="1" parent="0" />
        <mxCell id="2QC_VFxN8kF7JUzKWHUz-93" value="" style="whiteSpace=wrap;html=1;perimeterSpacing=6;glass=0;rounded=0;fillColor=#3399FF;strokeColor=#6c8ebf;movable=1;resizable=1;rotatable=1;deletable=1;editable=1;locked=0;connectable=1;" vertex="1" parent="1">
          <mxGeometry x="770" y="230" width="940" height="910" as="geometry" />
        </mxCell>
        <mxCell id="2QC_VFxN8kF7JUzKWHUz-82" value="" style="whiteSpace=wrap;html=1;perimeterSpacing=6;glass=0;rounded=0;fillColor=#dae8fc;strokeColor=#6c8ebf;movable=1;resizable=1;rotatable=1;deletable=1;editable=1;locked=0;connectable=1;" vertex="1" parent="1">
          <mxGeometry x="810" y="270" width="850" height="820" as="geometry" />
        </mxCell>
        <mxCell id="2QC_VFxN8kF7JUzKWHUz-68" value="" style="whiteSpace=wrap;html=1;perimeterSpacing=6;glass=0;rounded=0;fillColor=#fff2cc;strokeColor=#d6b656;movable=1;resizable=1;rotatable=1;deletable=1;editable=1;locked=0;connectable=1;" vertex="1" parent="1">
          <mxGeometry x="810" y="270" width="850" height="650" as="geometry" />
        </mxCell>
        <mxCell id="2QC_VFxN8kF7JUzKWHUz-70" style="edgeStyle=orthogonalEdgeStyle;rounded=0;orthogonalLoop=1;jettySize=auto;html=1;strokeWidth=5;" edge="1" parent="1" source="2QC_VFxN8kF7JUzKWHUz-1">
          <mxGeometry relative="1" as="geometry">
            <mxPoint x="760.35" y="693" as="targetPoint" />
          </mxGeometry>
        </mxCell>
        <mxCell id="2QC_VFxN8kF7JUzKWHUz-1" value="" style="sketch=0;html=1;dashed=0;whitespace=wrap;fillColor=#2875E2;strokeColor=#ffffff;points=[[0.005,0.63,0],[0.1,0.2,0],[0.9,0.2,0],[0.5,0,0],[0.995,0.63,0],[0.72,0.99,0],[0.5,1,0],[0.28,0.99,0]];verticalLabelPosition=bottom;align=center;verticalAlign=top;shape=mxgraph.kubernetes.icon;prIcon=ing" vertex="1" parent="1">
          <mxGeometry x="440.35" y="658" width="70" height="70" as="geometry" />
        </mxCell>
        <mxCell id="2QC_VFxN8kF7JUzKWHUz-3" value="&lt;font style=&quot;&quot;&gt;&lt;font style=&quot;font-size: 19px;&quot;&gt;Ingress configuration&lt;/font&gt;&lt;br&gt;&lt;/font&gt;" style="text;html=1;strokeColor=none;fillColor=none;align=center;verticalAlign=middle;whiteSpace=wrap;rounded=0;" vertex="1" parent="1">
          <mxGeometry x="441.6" y="750" width="67.5" height="40" as="geometry" />
        </mxCell>
        <mxCell id="2QC_VFxN8kF7JUzKWHUz-4" value="" style="sketch=0;html=1;dashed=0;whitespace=wrap;fillColor=#2875E2;strokeColor=#ffffff;points=[[0.005,0.63,0],[0.1,0.2,0],[0.9,0.2,0],[0.5,0,0],[0.995,0.63,0],[0.72,0.99,0],[0.5,1,0],[0.28,0.99,0]];verticalLabelPosition=bottom;align=center;verticalAlign=top;shape=mxgraph.kubernetes.icon;prIcon=svc" vertex="1" parent="1">
          <mxGeometry x="1050" y="400" width="50" height="48" as="geometry" />
        </mxCell>
        <mxCell id="2QC_VFxN8kF7JUzKWHUz-5" value="" style="sketch=0;html=1;dashed=0;whitespace=wrap;fillColor=#2875E2;strokeColor=#ffffff;points=[[0.005,0.63,0],[0.1,0.2,0],[0.9,0.2,0],[0.5,0,0],[0.995,0.63,0],[0.72,0.99,0],[0.5,1,0],[0.28,0.99,0]];verticalLabelPosition=bottom;align=center;verticalAlign=top;shape=mxgraph.kubernetes.icon;prIcon=svc" vertex="1" parent="1">
          <mxGeometry x="1050" y="290" width="50" height="48" as="geometry" />
        </mxCell>
        <mxCell id="2QC_VFxN8kF7JUzKWHUz-6" value="" style="sketch=0;html=1;dashed=0;whitespace=wrap;fillColor=#2875E2;strokeColor=#ffffff;points=[[0.005,0.63,0],[0.1,0.2,0],[0.9,0.2,0],[0.5,0,0],[0.995,0.63,0],[0.72,0.99,0],[0.5,1,0],[0.28,0.99,0]];verticalLabelPosition=bottom;align=center;verticalAlign=top;shape=mxgraph.kubernetes.icon;prIcon=svc" vertex="1" parent="1">
          <mxGeometry x="915" y="595" width="50" height="48" as="geometry" />
        </mxCell>
        <mxCell id="2QC_VFxN8kF7JUzKWHUz-7" value="" style="sketch=0;html=1;dashed=0;whitespace=wrap;fillColor=#2875E2;strokeColor=#ffffff;points=[[0.005,0.63,0],[0.1,0.2,0],[0.9,0.2,0],[0.5,0,0],[0.995,0.63,0],[0.72,0.99,0],[0.5,1,0],[0.28,0.99,0]];verticalLabelPosition=bottom;align=center;verticalAlign=top;shape=mxgraph.kubernetes.icon;prIcon=svc" vertex="1" parent="1">
          <mxGeometry x="1435" y="790" width="50" height="48" as="geometry" />
        </mxCell>
        <mxCell id="2QC_VFxN8kF7JUzKWHUz-9" value="&lt;font style=&quot;font-size: 15px;&quot;&gt;jore-import&lt;br&gt;(jore-graphql-import)&lt;br&gt;&lt;/font&gt;" style="text;html=1;align=center;verticalAlign=middle;resizable=0;points=[];autosize=1;strokeColor=none;fillColor=none;" vertex="1" parent="1">
          <mxGeometry x="995" y="448" width="160" height="50" as="geometry" />
        </mxCell>
        <mxCell id="2QC_VFxN8kF7JUzKWHUz-10" value="&lt;font style=&quot;font-size: 15px;&quot;&gt;jore-graphql&lt;/font&gt;" style="text;html=1;align=center;verticalAlign=middle;resizable=0;points=[];autosize=1;strokeColor=none;fillColor=none;" vertex="1" parent="1">
          <mxGeometry x="1025" y="348" width="100" height="30" as="geometry" />
        </mxCell>
        <mxCell id="2QC_VFxN8kF7JUzKWHUz-11" value="&lt;font style=&quot;font-size: 15px;&quot;&gt;generator-server&lt;br&gt;(hsl-map-generator-server)&lt;br&gt;&lt;/font&gt;" style="text;html=1;align=center;verticalAlign=middle;resizable=0;points=[];autosize=1;strokeColor=none;fillColor=none;" vertex="1" parent="1">
          <mxGeometry x="840" y="643" width="200" height="50" as="geometry" />
        </mxCell>
        <mxCell id="2QC_VFxN8kF7JUzKWHUz-12" value="&lt;font style=&quot;font-size: 15px;&quot;&gt;linjakartta-poc&lt;br&gt;(hsl-route-map-poc)&lt;br&gt;&lt;/font&gt;" style="text;html=1;align=center;verticalAlign=middle;resizable=0;points=[];autosize=1;strokeColor=none;fillColor=none;" vertex="1" parent="1">
          <mxGeometry x="1380" y="838" width="160" height="50" as="geometry" />
        </mxCell>
        <mxCell id="2QC_VFxN8kF7JUzKWHUz-13" value="" style="sketch=0;html=1;dashed=0;whitespace=wrap;fillColor=#2875E2;strokeColor=#ffffff;points=[[0.005,0.63,0],[0.1,0.2,0],[0.9,0.2,0],[0.5,0,0],[0.995,0.63,0],[0.72,0.99,0],[0.5,1,0],[0.28,0.99,0]];verticalLabelPosition=bottom;align=center;verticalAlign=top;shape=mxgraph.kubernetes.icon;prIcon=svc" vertex="1" parent="1">
          <mxGeometry x="865" y="290" width="50" height="48" as="geometry" />
        </mxCell>
        <mxCell id="2QC_VFxN8kF7JUzKWHUz-14" value="&lt;font style=&quot;font-size: 15px;&quot;&gt;kuljettajaohje-ui&lt;br&gt;(hsl-map-web-ui)&lt;br&gt;&lt;/font&gt;" style="text;html=1;align=center;verticalAlign=middle;resizable=0;points=[];autosize=1;strokeColor=none;fillColor=none;" vertex="1" parent="1">
          <mxGeometry x="820" y="338" width="140" height="50" as="geometry" />
        </mxCell>
        <mxCell id="2QC_VFxN8kF7JUzKWHUz-15" value="" style="sketch=0;html=1;dashed=0;whitespace=wrap;fillColor=#2875E2;strokeColor=#ffffff;points=[[0.005,0.63,0],[0.1,0.2,0],[0.9,0.2,0],[0.5,0,0],[0.995,0.63,0],[0.72,0.99,0],[0.5,1,0],[0.28,0.99,0]];verticalLabelPosition=bottom;align=center;verticalAlign=top;shape=mxgraph.kubernetes.icon;prIcon=svc" vertex="1" parent="1">
          <mxGeometry x="865" y="404" width="50" height="48" as="geometry" />
        </mxCell>
        <mxCell id="2QC_VFxN8kF7JUzKWHUz-16" value="&lt;font style=&quot;font-size: 15px;&quot;&gt;kuljettajaohje-server&lt;br&gt;&lt;/font&gt;" style="text;html=1;align=center;verticalAlign=middle;resizable=0;points=[];autosize=1;strokeColor=none;fillColor=none;" vertex="1" parent="1">
          <mxGeometry x="810" y="462" width="160" height="30" as="geometry" />
        </mxCell>
        <mxCell id="2QC_VFxN8kF7JUzKWHUz-17" value="" style="sketch=0;html=1;dashed=0;whitespace=wrap;fillColor=#2875E2;strokeColor=#ffffff;points=[[0.005,0.63,0],[0.1,0.2,0],[0.9,0.2,0],[0.5,0,0],[0.995,0.63,0],[0.72,0.99,0],[0.5,1,0],[0.28,0.99,0]];verticalLabelPosition=bottom;align=center;verticalAlign=top;shape=mxgraph.kubernetes.icon;prIcon=svc" vertex="1" parent="1">
          <mxGeometry x="1239" y="290" width="50" height="48" as="geometry" />
        </mxCell>
        <mxCell id="2QC_VFxN8kF7JUzKWHUz-18" value="&lt;font style=&quot;font-size: 15px;&quot;&gt;karttageneraattori-ui&lt;br&gt;(hsl-map-generator-ui)&lt;br&gt;&lt;/font&gt;" style="text;html=1;align=center;verticalAlign=middle;resizable=0;points=[];autosize=1;strokeColor=none;fillColor=none;" vertex="1" parent="1">
          <mxGeometry x="1179" y="338" width="170" height="50" as="geometry" />
        </mxCell>
        <mxCell id="2QC_VFxN8kF7JUzKWHUz-21" value="" style="sketch=0;html=1;dashed=0;whitespace=wrap;fillColor=#2875E2;strokeColor=#ffffff;points=[[0.005,0.63,0],[0.1,0.2,0],[0.9,0.2,0],[0.5,0,0],[0.995,0.63,0],[0.72,0.99,0],[0.5,1,0],[0.28,0.99,0]];verticalLabelPosition=bottom;align=center;verticalAlign=top;shape=mxgraph.kubernetes.icon;prIcon=svc" vertex="1" parent="1">
          <mxGeometry x="1239" y="414" width="50" height="48" as="geometry" />
        </mxCell>
        <mxCell id="2QC_VFxN8kF7JUzKWHUz-22" value="&lt;font style=&quot;font-size: 15px;&quot;&gt;karttageneraattori-server&lt;br&gt;(hsl-routemap-server)&lt;br&gt;&lt;/font&gt;" style="text;html=1;align=center;verticalAlign=middle;resizable=0;points=[];autosize=1;strokeColor=none;fillColor=none;" vertex="1" parent="1">
          <mxGeometry x="1169" y="462" width="190" height="50" as="geometry" />
        </mxCell>
        <mxCell id="2QC_VFxN8kF7JUzKWHUz-23" value="" style="sketch=0;html=1;dashed=0;whitespace=wrap;fillColor=#2875E2;strokeColor=#ffffff;points=[[0.005,0.63,0],[0.1,0.2,0],[0.9,0.2,0],[0.5,0,0],[0.995,0.63,0],[0.72,0.99,0],[0.5,1,0],[0.28,0.99,0]];verticalLabelPosition=bottom;align=center;verticalAlign=top;shape=mxgraph.kubernetes.icon;prIcon=svc" vertex="1" parent="1">
          <mxGeometry x="1500" y="290" width="50" height="48" as="geometry" />
        </mxCell>
        <mxCell id="2QC_VFxN8kF7JUzKWHUz-24" value="&lt;font style=&quot;font-size: 15px;&quot;&gt;julistegeneraattori-ui&lt;br&gt;(hsl-map-publisher-ui)&lt;br&gt;&lt;/font&gt;" style="text;html=1;align=center;verticalAlign=middle;resizable=0;points=[];autosize=1;strokeColor=none;fillColor=none;" vertex="1" parent="1">
          <mxGeometry x="1440" y="338" width="170" height="50" as="geometry" />
        </mxCell>
        <mxCell id="2QC_VFxN8kF7JUzKWHUz-27" value="" style="sketch=0;html=1;dashed=0;whitespace=wrap;fillColor=#2875E2;strokeColor=#ffffff;points=[[0.005,0.63,0],[0.1,0.2,0],[0.9,0.2,0],[0.5,0,0],[0.995,0.63,0],[0.72,0.99,0],[0.5,1,0],[0.28,0.99,0]];verticalLabelPosition=bottom;align=center;verticalAlign=top;shape=mxgraph.kubernetes.icon;prIcon=svc" vertex="1" parent="1">
          <mxGeometry x="1500" y="404" width="50" height="48" as="geometry" />
        </mxCell>
        <mxCell id="2QC_VFxN8kF7JUzKWHUz-28" value="&lt;font style=&quot;font-size: 15px;&quot;&gt;julistegeneraattori-server&lt;br&gt;(hsl-map-publisher)&lt;br&gt;&lt;/font&gt;" style="text;html=1;align=center;verticalAlign=middle;resizable=0;points=[];autosize=1;strokeColor=none;fillColor=none;" vertex="1" parent="1">
          <mxGeometry x="1430" y="452" width="190" height="50" as="geometry" />
        </mxCell>
        <mxCell id="2QC_VFxN8kF7JUzKWHUz-29" value="" style="sketch=0;html=1;dashed=0;whitespace=wrap;fillColor=#2875E2;strokeColor=#ffffff;points=[[0.005,0.63,0],[0.1,0.2,0],[0.9,0.2,0],[0.5,0,0],[0.995,0.63,0],[0.72,0.99,0],[0.5,1,0],[0.28,0.99,0]];verticalLabelPosition=bottom;align=center;verticalAlign=top;shape=mxgraph.kubernetes.icon;prIcon=svc" vertex="1" parent="1">
          <mxGeometry x="1510" y="510" width="50" height="48" as="geometry" />
        </mxCell>
        <mxCell id="2QC_VFxN8kF7JUzKWHUz-30" value="&lt;font style=&quot;font-size: 15px;&quot;&gt;julistegeneraattori-worker&lt;br&gt;(hsl-map-publisher)&lt;br&gt;&lt;/font&gt;" style="text;html=1;align=center;verticalAlign=middle;resizable=0;points=[];autosize=1;strokeColor=none;fillColor=none;" vertex="1" parent="1">
          <mxGeometry x="1440" y="558" width="190" height="50" as="geometry" />
        </mxCell>
        <mxCell id="2QC_VFxN8kF7JUzKWHUz-31" value="" style="sketch=0;html=1;dashed=0;whitespace=wrap;fillColor=#2875E2;strokeColor=#ffffff;points=[[0.005,0.63,0],[0.1,0.2,0],[0.9,0.2,0],[0.5,0,0],[0.995,0.63,0],[0.72,0.99,0],[0.5,1,0],[0.28,0.99,0]];verticalLabelPosition=bottom;align=center;verticalAlign=top;shape=mxgraph.kubernetes.icon;prIcon=svc" vertex="1" parent="1">
          <mxGeometry x="1510" y="620" width="50" height="48" as="geometry" />
        </mxCell>
        <mxCell id="2QC_VFxN8kF7JUzKWHUz-32" value="&lt;font style=&quot;font-size: 15px;&quot;&gt;julistegeneraattori-render&lt;br&gt;(hsl-map-publisher)&lt;br&gt;&lt;/font&gt;" style="text;html=1;align=center;verticalAlign=middle;resizable=0;points=[];autosize=1;strokeColor=none;fillColor=none;" vertex="1" parent="1">
          <mxGeometry x="1440" y="668" width="190" height="50" as="geometry" />
        </mxCell>
        <mxCell id="2QC_VFxN8kF7JUzKWHUz-34" value="" style="sketch=0;html=1;dashed=0;whitespace=wrap;fillColor=#2875E2;strokeColor=#ffffff;points=[[0.005,0.63,0],[0.1,0.2,0],[0.9,0.2,0],[0.5,0,0],[0.995,0.63,0],[0.72,0.99,0],[0.5,1,0],[0.28,0.99,0]];verticalLabelPosition=bottom;align=center;verticalAlign=top;shape=mxgraph.kubernetes.icon;prIcon=svc" vertex="1" parent="1">
          <mxGeometry x="1209" y="595" width="50" height="48" as="geometry" />
        </mxCell>
        <mxCell id="2QC_VFxN8kF7JUzKWHUz-35" value="&lt;font style=&quot;font-size: 15px;&quot;&gt;jore-tileserver&lt;br&gt;&lt;/font&gt;" style="text;html=1;align=center;verticalAlign=middle;resizable=0;points=[];autosize=1;strokeColor=none;fillColor=none;" vertex="1" parent="1">
          <mxGeometry x="1179" y="653" width="110" height="30" as="geometry" />
        </mxCell>
        <mxCell id="2QC_VFxN8kF7JUzKWHUz-69" style="edgeStyle=orthogonalEdgeStyle;rounded=0;orthogonalLoop=1;jettySize=auto;html=1;entryX=0.005;entryY=0.63;entryDx=0;entryDy=0;entryPerimeter=0;strokeWidth=4;" edge="1" parent="1" source="2QC_VFxN8kF7JUzKWHUz-38">
          <mxGeometry relative="1" as="geometry">
            <mxPoint x="440.3499999999999" y="692.0999999999999" as="targetPoint" />
          </mxGeometry>
        </mxCell>
        <mxCell id="2QC_VFxN8kF7JUzKWHUz-38" value="&lt;font style=&quot;font-size: 19px;&quot;&gt;Outside access&lt;/font&gt;" style="text;html=1;align=center;verticalAlign=middle;resizable=0;points=[];autosize=1;strokeColor=none;fillColor=none;strokeWidth=3;" vertex="1" parent="1">
          <mxGeometry x="-20" y="673" width="150" height="40" as="geometry" />
        </mxCell>
        <mxCell id="2QC_VFxN8kF7JUzKWHUz-64" value="" style="sketch=0;html=1;dashed=0;whitespace=wrap;fillColor=#2875E2;strokeColor=#ffffff;points=[[0.005,0.63,0],[0.1,0.2,0],[0.9,0.2,0],[0.5,0,0],[0.995,0.63,0],[0.72,0.99,0],[0.5,1,0],[0.28,0.99,0]];verticalLabelPosition=bottom;align=center;verticalAlign=top;shape=mxgraph.kubernetes.icon;prIcon=svc" vertex="1" parent="1">
          <mxGeometry x="955" y="790" width="50" height="48" as="geometry" />
        </mxCell>
        <mxCell id="2QC_VFxN8kF7JUzKWHUz-65" value="&lt;font style=&quot;font-size: 15px;&quot;&gt;redirector&lt;br&gt;(hsl-map-site)&lt;br&gt;&lt;/font&gt;" style="text;html=1;align=center;verticalAlign=middle;resizable=0;points=[];autosize=1;strokeColor=none;fillColor=none;" vertex="1" parent="1">
          <mxGeometry x="920" y="838" width="120" height="50" as="geometry" />
        </mxCell>
        <mxCell id="2QC_VFxN8kF7JUzKWHUz-72" value="" style="endArrow=none;dashed=1;html=1;rounded=0;" edge="1" parent="1">
          <mxGeometry width="50" height="50" relative="1" as="geometry">
            <mxPoint x="830" y="540" as="sourcePoint" />
            <mxPoint x="1660" y="740" as="targetPoint" />
            <Array as="points">
              <mxPoint x="940" y="540" />
              <mxPoint x="1370" y="540" />
              <mxPoint x="1370" y="640" />
              <mxPoint x="1370" y="740" />
            </Array>
          </mxGeometry>
        </mxCell>
        <mxCell id="2QC_VFxN8kF7JUzKWHUz-73" value="" style="endArrow=none;dashed=1;html=1;dashPattern=1 3;strokeWidth=2;rounded=0;" edge="1" parent="1">
          <mxGeometry width="50" height="50" relative="1" as="geometry">
            <mxPoint x="980" y="540" as="sourcePoint" />
            <mxPoint x="980" y="270" as="targetPoint" />
          </mxGeometry>
        </mxCell>
        <mxCell id="2QC_VFxN8kF7JUzKWHUz-74" value="" style="endArrow=none;dashed=1;html=1;dashPattern=1 3;strokeWidth=2;rounded=0;" edge="1" parent="1">
          <mxGeometry width="50" height="50" relative="1" as="geometry">
            <mxPoint x="1168" y="540" as="sourcePoint" />
            <mxPoint x="1168" y="270" as="targetPoint" />
          </mxGeometry>
        </mxCell>
        <mxCell id="2QC_VFxN8kF7JUzKWHUz-75" value="" style="endArrow=none;dashed=1;html=1;dashPattern=1 3;strokeWidth=2;rounded=0;" edge="1" parent="1">
          <mxGeometry width="50" height="50" relative="1" as="geometry">
            <mxPoint x="1370" y="549" as="sourcePoint" />
            <mxPoint x="1370" y="279" as="targetPoint" />
          </mxGeometry>
        </mxCell>
        <mxCell id="2QC_VFxN8kF7JUzKWHUz-76" value="" style="endArrow=none;dashed=1;html=1;dashPattern=1 3;strokeWidth=2;rounded=0;" edge="1" parent="1">
          <mxGeometry width="50" height="50" relative="1" as="geometry">
            <mxPoint x="1074" y="740" as="sourcePoint" />
            <mxPoint x="1074.29" y="546" as="targetPoint" />
          </mxGeometry>
        </mxCell>
        <mxCell id="2QC_VFxN8kF7JUzKWHUz-78" value="" style="endArrow=none;dashed=1;html=1;dashPattern=1 3;strokeWidth=2;rounded=0;" edge="1" parent="1">
          <mxGeometry width="50" height="50" relative="1" as="geometry">
            <mxPoint x="1370" y="737" as="sourcePoint" />
            <mxPoint x="1370.29" y="543" as="targetPoint" />
          </mxGeometry>
        </mxCell>
        <mxCell id="2QC_VFxN8kF7JUzKWHUz-79" value="" style="endArrow=none;dashed=1;html=1;dashPattern=1 3;strokeWidth=2;rounded=0;" edge="1" parent="1">
          <mxGeometry width="50" height="50" relative="1" as="geometry">
            <mxPoint x="810" y="740" as="sourcePoint" />
            <mxPoint x="1420" y="740" as="targetPoint" />
          </mxGeometry>
        </mxCell>
        <mxCell id="2QC_VFxN8kF7JUzKWHUz-80" value="" style="endArrow=none;dashed=1;html=1;dashPattern=1 3;strokeWidth=2;rounded=0;exitX=0.448;exitY=0.99;exitDx=0;exitDy=0;exitPerimeter=0;" edge="1" parent="1" source="2QC_VFxN8kF7JUzKWHUz-68">
          <mxGeometry width="50" height="50" relative="1" as="geometry">
            <mxPoint x="1190" y="910" as="sourcePoint" />
            <mxPoint x="1190.29" y="737" as="targetPoint" />
          </mxGeometry>
        </mxCell>
        <mxCell id="2QC_VFxN8kF7JUzKWHUz-83" value="" style="whiteSpace=wrap;html=1;perimeterSpacing=6;glass=0;rounded=0;fillColor=#fff2cc;strokeColor=#d6b656;movable=1;resizable=1;rotatable=1;deletable=1;editable=1;locked=0;connectable=1;" vertex="1" parent="1">
          <mxGeometry x="1740" y="607" width="70" height="70" as="geometry" />
        </mxCell>
        <mxCell id="2QC_VFxN8kF7JUzKWHUz-84" value="" style="whiteSpace=wrap;html=1;perimeterSpacing=6;glass=0;rounded=0;fillColor=#dae8fc;strokeColor=#6c8ebf;movable=1;resizable=1;rotatable=1;deletable=1;editable=1;locked=0;connectable=1;" vertex="1" parent="1">
          <mxGeometry x="1740" y="707" width="70" height="70" as="geometry" />
        </mxCell>
        <mxCell id="2QC_VFxN8kF7JUzKWHUz-85" value="&lt;font style=&quot;font-size: 19px;&quot;&gt;Services accessible from outside of the network&lt;/font&gt;" style="text;html=1;align=center;verticalAlign=middle;resizable=0;points=[];autosize=1;strokeColor=none;fillColor=none;" vertex="1" parent="1">
          <mxGeometry x="1820" y="627" width="420" height="40" as="geometry" />
        </mxCell>
        <mxCell id="2QC_VFxN8kF7JUzKWHUz-86" value="&lt;font style=&quot;font-size: 19px;&quot;&gt;Internal services&lt;/font&gt;" style="text;html=1;align=center;verticalAlign=middle;resizable=0;points=[];autosize=1;strokeColor=none;fillColor=none;" vertex="1" parent="1">
          <mxGeometry x="1830" y="722" width="160" height="40" as="geometry" />
        </mxCell>
        <mxCell id="2QC_VFxN8kF7JUzKWHUz-87" value="" style="sketch=0;html=1;dashed=0;whitespace=wrap;fillColor=#2875E2;strokeColor=#ffffff;points=[[0.005,0.63,0],[0.1,0.2,0],[0.9,0.2,0],[0.5,0,0],[0.995,0.63,0],[0.72,0.99,0],[0.5,1,0],[0.28,0.99,0]];verticalLabelPosition=bottom;align=center;verticalAlign=top;shape=mxgraph.kubernetes.icon;prIcon=svc" vertex="1" parent="1">
          <mxGeometry x="965" y="960" width="50" height="48" as="geometry" />
        </mxCell>
        <mxCell id="2QC_VFxN8kF7JUzKWHUz-88" value="&lt;font style=&quot;font-size: 15px;&quot;&gt;Redis&lt;br&gt;&lt;/font&gt;" style="text;html=1;align=center;verticalAlign=middle;resizable=0;points=[];autosize=1;strokeColor=none;fillColor=none;" vertex="1" parent="1">
          <mxGeometry x="960" y="1018" width="60" height="30" as="geometry" />
        </mxCell>
        <mxCell id="2QC_VFxN8kF7JUzKWHUz-89" value="" style="sketch=0;html=1;dashed=0;whitespace=wrap;fillColor=#2875E2;strokeColor=#ffffff;points=[[0.005,0.63,0],[0.1,0.2,0],[0.9,0.2,0],[0.5,0,0],[0.995,0.63,0],[0.72,0.99,0],[0.5,1,0],[0.28,0.99,0]];verticalLabelPosition=bottom;align=center;verticalAlign=top;shape=mxgraph.kubernetes.icon;prIcon=svc" vertex="1" parent="1">
          <mxGeometry x="1435" y="960" width="50" height="48" as="geometry" />
        </mxCell>
        <mxCell id="2QC_VFxN8kF7JUzKWHUz-90" value="&lt;font style=&quot;font-size: 15px;&quot;&gt;monitoring&lt;br&gt;&lt;/font&gt;" style="text;html=1;align=center;verticalAlign=middle;resizable=0;points=[];autosize=1;strokeColor=none;fillColor=none;" vertex="1" parent="1">
          <mxGeometry x="1415" y="1018" width="90" height="30" as="geometry" />
        </mxCell>
        <mxCell id="2QC_VFxN8kF7JUzKWHUz-91" value="" style="endArrow=none;dashed=1;html=1;dashPattern=1 3;strokeWidth=2;rounded=0;exitX=0.448;exitY=0.995;exitDx=0;exitDy=0;exitPerimeter=0;" edge="1" parent="1" source="2QC_VFxN8kF7JUzKWHUz-82">
          <mxGeometry width="50" height="50" relative="1" as="geometry">
            <mxPoint x="1190" y="1080" as="sourcePoint" />
            <mxPoint x="1190" y="920" as="targetPoint" />
          </mxGeometry>
        </mxCell>
        <mxCell id="2QC_VFxN8kF7JUzKWHUz-92" value="" style="endArrow=none;dashed=1;html=1;dashPattern=1 3;strokeWidth=2;rounded=0;" edge="1" parent="1">
          <mxGeometry width="50" height="50" relative="1" as="geometry">
            <mxPoint x="810" y="920" as="sourcePoint" />
            <mxPoint x="1660" y="920" as="targetPoint" />
          </mxGeometry>
        </mxCell>
        <mxCell id="2QC_VFxN8kF7JUzKWHUz-94" value="" style="whiteSpace=wrap;html=1;perimeterSpacing=6;glass=0;rounded=0;fillColor=#3399FF;strokeColor=#6c8ebf;movable=1;resizable=1;rotatable=1;deletable=1;editable=1;locked=0;connectable=1;" vertex="1" parent="1">
          <mxGeometry x="1740" y="507" width="70" height="71" as="geometry" />
        </mxCell>
        <mxCell id="2QC_VFxN8kF7JUzKWHUz-95" value="&lt;font style=&quot;font-size: 19px;&quot;&gt;Azure kubernetes environment&lt;/font&gt;" style="text;html=1;align=center;verticalAlign=middle;resizable=0;points=[];autosize=1;strokeColor=none;fillColor=none;" vertex="1" parent="1">
          <mxGeometry x="1830" y="522.5" width="280" height="40" as="geometry" />
        </mxCell>
        <mxCell id="2QC_VFxN8kF7JUzKWHUz-96" value="&lt;font style=&quot;font-size: 20px;&quot;&gt;* Same services on all environments, only difference is the amount of replicas&lt;/font&gt;" style="text;html=1;align=center;verticalAlign=middle;resizable=0;points=[];autosize=1;strokeColor=none;fillColor=none;" vertex="1" parent="1">
          <mxGeometry x="1749" y="838" width="710" height="40" as="geometry" />
        </mxCell>
      </root>
    </mxGraphModel>
  </diagram>
</mxfile>
